<svg width="1021" height="482" viewBox="0 0 1021 482" fill="none" xmlns="http://www.w3.org/2000/svg">
<path d="M141 376H195.462L184.734 413.545H152.14L141 376Z" fill="#F0AF89"/>
<path d="M147.112 417.112C147.112 412.141 151.141 408.112 156.112 408.112H181.683C193.518 408.112 203.112 417.706 203.112 429.541V429.541C203.112 430.961 201.961 432.112 200.54 432.112H151.112C148.903 432.112 147.112 430.321 147.112 428.112V417.112Z" fill="#823A3D"/>
<path d="M246 376H300.462L289.734 413.545H257.14L246 376Z" fill="#F0AF89"/>
<path d="M252.112 417.112C252.112 412.141 256.141 408.112 261.112 408.112H286.683C298.518 408.112 308.112 417.706 308.112 429.541V429.541C308.112 430.961 306.961 432.112 305.54 432.112H256.112C253.903 432.112 252.112 430.321 252.112 428.112V417.112Z" fill="#823A3D"/>
<rect x="142" y="204" width="154.308" height="99.8462" rx="10" fill="#F0AF89"/>
<path d="M155.203 303.846H283.105V332.629C283.105 338.152 278.628 342.629 273.105 342.629H165.203C159.68 342.629 155.203 338.152 155.203 332.629V303.846Z" fill="#B9694E"/>
<path d="M149.427 303.846H288.881V307.049C288.881 312.572 284.404 317.049 278.881 317.049H159.427C153.904 317.049 149.427 312.572 149.427 307.049V303.846Z" fill="#823A3D"/>
<rect x="176.657" y="222.979" width="52.8112" height="38.7832" rx="10" fill="#FFBE98"/>
<rect x="236.07" y="222.979" width="52.8112" height="38.7832" rx="10" fill="#FFBE98"/>
<rect x="202.238" y="265.888" width="27.2308" height="16.5035" rx="6" fill="#FFBE98"/>
<rect x="202.238" y="285.692" width="27.2308" height="16.5035" rx="6" fill="#FFBE98"/>
<rect x="236.07" y="285.692" width="27.2308" height="16.5035" rx="6" fill="#FFBE98"/>
<rect x="236.07" y="265.888" width="27.2308" height="16.5035" rx="6" fill="#FFBE98"/>
<ellipse cx="207.189" cy="249.385" rx="10.7273" ry="6.6014" fill="#F55555"/>
<ellipse cx="266.601" cy="249.385" rx="10.7273" ry="6.6014" fill="#F55555"/>
<path d="M99.5524 83.035C99.5524 77.5121 104.03 73.035 109.552 73.035H179.496C185.019 73.035 189.496 77.5121 189.496 83.035V138.231C189.496 156.456 174.722 171.231 156.496 171.231H132.552C114.327 171.231 99.5524 156.456 99.5524 138.231V83.035Z" fill="#FFBE98"/>
<rect x="118.531" y="101.091" width="28.0559" height="36.3077" rx="8" fill="white"/>
<rect x="166.392" y="101.091" width="28.0559" height="36.3077" rx="8" fill="white"/>
<rect x="182.07" y="107.692" width="7.42657" height="22.2797" rx="3.71329" fill="black"/>
<rect x="134.21" y="107.692" width="7.42657" height="22.2797" rx="3.71329" fill="black"/>
<path d="M118.531 129.147H146.587V129.399C146.587 133.817 143.006 137.399 138.587 137.399H126.531C122.113 137.399 118.531 133.817 118.531 129.399V129.147Z" fill="#E1A683"/>
<path d="M166.392 129.147H194.447V129.399C194.447 133.817 190.866 137.399 186.447 137.399H174.392C169.973 137.399 166.392 133.817 166.392 129.399V129.147Z" fill="#E1A683"/>
<rect x="128.483" y="89.0986" width="26.4056" height="12.3776" rx="6.18881" transform="rotate(17.8041 128.483 89.0986)" fill="#F55555"/>
<rect x="130.909" y="151.146" width="30.7948" height="12.3776" rx="6.18881" transform="rotate(-30 130.909 151.146)" fill="#F55555"/>
<rect width="30.7948" height="12.3776" rx="6.18881" transform="matrix(-0.866025 -0.5 -0.5 0.866025 183.571 151.146)" fill="#F55555"/>
<rect width="30.7948" height="12.3776" rx="6.18881" transform="matrix(-0.5 -0.866025 -0.866025 0.5 176.005 159.117)" fill="#F55555"/>
<rect x="139.161" y="159.942" width="30.7948" height="12.3776" rx="6.18881" transform="rotate(-60 139.161 159.942)" fill="#F55555"/>
<rect width="30.5315" height="13.2028" rx="6.6014" transform="matrix(-4.37114e-08 -1 -1 4.37114e-08 163.916 164.629)" fill="#F55555"/>
<rect width="26.4056" height="12.3776" rx="6.18881" transform="matrix(-0.952107 0.305764 0.305764 0.952107 185.756 88.7133)" fill="#F55555"/>
<ellipse cx="158.14" cy="134.923" rx="13.2028" ry="11.5524" fill="#7556A4"/>
<ellipse cx="154.014" cy="141.525" rx="4.95105" ry="3.3007" fill="black"/>
<path fill-rule="evenodd" clip-rule="evenodd" d="M170.479 139.042C169.482 141.328 167.679 143.265 165.373 144.589C163.552 144.101 162.266 142.913 162.266 141.525C162.266 139.702 164.482 138.224 167.217 138.224C168.466 138.224 169.608 138.532 170.479 139.042Z" fill="black"/>
<path d="M188.584 32.0825L179.754 26L180.735 34.8472V41.4827L177.791 47.5651L173.376 53.0947L168.471 56.9653L161.603 59.1771L159.641 66.3655V73.5539L164.056 79.6364H168.471L182.697 73.5539L192.999 63.6008L196.923 53.0947L194.961 42.5886L188.584 32.0825Z" fill="white"/>
<path d="M99.5524 72.4056C99.5524 61.3599 108.507 52.4056 119.552 52.4056H169.497C180.542 52.4056 189.496 61.3599 189.496 72.4056V92.014H99.5524V72.4056Z" fill="#B9694E"/>
<path d="M96.3395 32.0825L105.17 26L104.188 34.8472V41.4827L107.132 47.5651L111.547 53.0947L116.452 56.9653L123.32 59.1771L125.282 66.3655V73.5539L120.867 79.6364H116.452L102.226 73.5539L91.9245 63.6008L88 53.0947L89.9622 42.5886L96.3395 32.0825Z" fill="white"/>
<rect x="99.5524" y="83.7622" width="89.9441" height="8.25175" fill="#823A3D"/>
<circle cx="82.6713" cy="232.168" r="25.1678" fill="#FFBE98"/>
<circle cx="70.2937" cy="252.797" r="25.1678" fill="#FFBE98"/>
<circle cx="64.5175" cy="277.552" r="23.5175" fill="#FFBE98"/>
<circle cx="66.993" cy="303.133" r="19.3916" fill="#FFBE98"/>
<circle cx="77.7203" cy="324.587" r="15.2657" fill="#FFBE98"/>
<circle cx="504.441" cy="242.93" r="25.1678" fill="#FFBE98"/>
<circle cx="518.469" cy="266.86" r="25.1678" fill="#FFBE98"/>
<circle cx="537.448" cy="286.664" r="23.5175" fill="#FFBE98"/>
<circle cx="558.902" cy="281.713" r="21.8671" fill="#FFBE98"/>
<circle cx="576.231" cy="269.336" r="17.7413" fill="#FFBE98"/>
<circle cx="683.917" cy="202.721" r="24.3878" transform="rotate(-13.2016 683.917 202.721)" fill="#FFBE98"/>
<circle cx="687.481" cy="225.129" r="24.3878" transform="rotate(-13.2016 687.481 225.129)" fill="#FFBE98"/>
<circle cx="697.124" cy="249.947" r="22.7886" transform="rotate(-13.2016 697.124 249.947)" fill="#FFBE98"/>
<circle cx="709.324" cy="273.614" r="18.7906" transform="rotate(-13.2016 709.324 273.614)" fill="#FFBE98"/>
<circle cx="720.911" cy="291.416" r="14.7926" transform="rotate(-13.2016 720.911 291.416)" fill="#FFBE98"/>
<path d="M229.337 89.9999C229.358 84.4771 233.853 80.0177 239.376 80.0395L306.532 80.305C312.055 80.3268 316.514 84.8216 316.492 90.3444L316.286 142.497C316.214 160.722 301.381 175.438 283.156 175.366L262 175.282C243.775 175.21 229.058 160.377 229.13 142.152L229.337 89.9999Z" fill="#FFBE98"/>
<rect x="247.659" y="107.259" width="27.1864" height="35.1824" rx="8" transform="rotate(0.226481 247.659 107.259)" fill="white"/>
<rect x="294.036" y="107.442" width="27.1864" height="35.1824" rx="8" transform="rotate(0.226481 294.036 107.442)" fill="white"/>
<rect width="7.19644" height="26.6895" rx="3.59822" transform="matrix(0.999988 0.00488665 -0.00319746 0.999995 309.203 111.367)" fill="black"/>
<rect width="16.2547" height="29.5853" rx="6" transform="matrix(-4.37718e-08 -1 0.999999 -0.00168925 270.883 169.824)" fill="black"/>
<rect width="7.19644" height="26.6895" rx="3.59822" transform="matrix(0.999988 0.00488665 -0.00319746 0.999995 262.826 111.141)" fill="black"/>
<rect x="257.348" y="97.7014" width="25.5872" height="11.994" rx="5.99701" transform="rotate(18.0306 257.348 97.7014)" fill="#F55555"/>
<rect x="259.462" y="151.594" width="29.8404" height="11.994" rx="5.99701" transform="rotate(-29.7735 259.462 151.594)" fill="#F55555"/>
<rect width="29.8404" height="11.994" rx="5.99701" transform="matrix(-0.864042 -0.503419 -0.503419 0.864042 310.491 151.796)" fill="#F55555"/>
<rect width="29.8404" height="11.994" rx="5.99701" transform="matrix(-0.496573 -0.867995 -0.867995 0.496573 303.129 159.491)" fill="#F55555"/>
<rect x="267.424" y="160.149" width="29.8404" height="11.994" rx="5.99701" transform="rotate(-59.7735 267.424 160.149)" fill="#F55555"/>
<rect width="29.5852" height="12.7936" rx="6.39681" transform="matrix(0.00395279 -0.999992 -0.999992 -0.00395279 291.394 164.786)" fill="#F55555"/>
<rect width="25.5872" height="11.994" rx="5.99701" transform="matrix(-0.953309 0.301998 0.301998 0.953309 312.848 97.5473)" fill="#F55555"/>
<ellipse cx="285.91" cy="135.979" rx="12.7936" ry="11.1944" transform="rotate(0.226481 285.91 135.979)" fill="#7556A4"/>
<ellipse cx="281.887" cy="142.36" rx="4.79761" ry="3.1984" transform="rotate(0.226481 281.887 142.36)" fill="black"/>
<path fill-rule="evenodd" clip-rule="evenodd" d="M297.851 140.017C296.876 142.228 295.122 144.099 292.883 145.373C291.12 144.893 289.878 143.737 289.883 142.391C289.89 140.625 292.044 139.201 294.693 139.212C295.904 139.217 297.009 139.52 297.851 140.017Z" fill="black"/>
<path d="M315.695 34.2792L307.162 28.3514L308.079 36.9282L308.054 43.3579L305.178 49.2406L300.879 54.5818L296.11 58.3136L289.447 60.4306L287.518 67.3886L287.491 74.3542L291.745 80.265L296.024 80.2819L309.832 74.4425L319.853 64.8373L323.696 54.6719L321.834 44.484L315.695 34.2792Z" fill="white"/>
<path d="M229.267 73.6311C229.311 62.5855 238.3 53.6667 249.346 53.7103L296.651 53.8973C307.696 53.941 316.615 62.9306 316.572 73.9762L316.499 92.3569L229.194 92.0118L229.267 73.6311Z" fill="#B9694E"/>
<path d="M226.311 33.9259L234.89 28.0658L233.906 36.635L233.88 43.0647L236.709 48.9699L240.966 54.3449L245.705 58.1144L252.351 60.284L254.225 67.257L254.197 74.2226L249.896 80.0996L245.618 80.0827L231.856 74.1342L221.912 64.4502L218.149 54.2547L220.091 44.0818L226.311 33.9259Z" fill="white"/>
<rect x="229.226" y="84.0159" width="87.3095" height="7.99601" transform="rotate(0.226481 229.226 84.0159)" fill="#823A3D"/>
<path d="M385.052 123.993L384.794 332.814L439.334 332.882L439.591 124.06L410.225 85.198L385.052 123.993Z" fill="#D1E0E3"/>
<rect x="384.801" y="331.883" width="54.4615" height="9.4175" fill="#823A3D"/>
<path d="M404.158 340.949L419.836 340.947L419.845 386.844C419.845 388.5 418.502 389.844 416.845 389.844L408.167 389.846C405.958 389.846 404.167 388.056 404.166 385.846L404.158 340.949Z" fill="#B9694E"/>
<ellipse cx="417.035" cy="364.451" rx="10.5032" ry="5.79007" transform="rotate(90.3883 417.035 364.451)" fill="#FFBE98"/>
</svg>
